{
	"asset":{
		"generator":"Khronos glTF Blender I/O v4.2.60",
		"version":"2.0"
	},
	"scene":0,
	"scenes":[
		{
			"name":"Scene",
			"nodes":[
				1,
				3,
				4
			]
		}
	],
	"nodes":[
		{
			"mesh":0,
			"name":"mesh_CityEngineMaterial"
		},
		{
			"children":[
				0
			],
			"name":"Node_0"
		},
		{
			"mesh":1,
			"name":"mesh_CityEngineMaterial_1"
		},
		{
			"children":[
				2
			],
			"name":"Node_2"
		},
		{
			"mesh":2,
			"name":"Cube"
		}
	],
	"materials":[
		{
			"doubleSided":true,
			"name":"CityEngineMaterial_1",
			"pbrMetallicRoughness":{
				"metallicFactor":0
			}
		},
		{
			"doubleSided":true,
			"name":"CityEngineMaterial",
			"pbrMetallicRoughness":{
				"metallicFactor":0
			}
		},
		{
			"doubleSided":true,
			"name":"Material",
			"pbrMetallicRoughness":{
				"baseColorFactor":[
					0.800000011920929,
					0.800000011920929,
					0.800000011920929,
					1
				],
				"metallicFactor":0,
				"roughnessFactor":0.5
			}
		}
	],
	"meshes":[
		{
			"name":"mesh_CityEngineMaterial",
			"primitives":[
				{
					"attributes":{
						"POSITION":0,
						"NORMAL":1
					},
					"indices":2,
					"material":0
				}
			]
		},
		{
			"name":"mesh_CityEngineMaterial_1",
			"primitives":[
				{
					"attributes":{
						"POSITION":3,
						"NORMAL":4
					},
					"indices":5,
					"material":1
				}
			]
		},
		{
			"name":"Cube",
			"primitives":[
				{
					"attributes":{
						"POSITION":6,
						"NORMAL":7,
						"TEXCOORD_0":8
					},
					"indices":9,
					"material":2
				}
			]
		}
	],
	"accessors":[
		{
			"bufferView":0,
			"componentType":5126,
			"count":48,
			"max":[
				169494.609375,
				21.72007179260254,
				-2544518.5
			],
			"min":[
				169472,
				18.02007293701172,
				-2544556.25
			],
			"type":"VEC3"
		},
		{
			"bufferView":1,
			"componentType":5126,
			"count":48,
			"type":"VEC3"
		},
		{
			"bufferView":2,
			"componentType":5123,
			"count":48,
			"type":"SCALAR"
		},
		{
			"bufferView":3,
			"componentType":5126,
			"count":3225,
			"max":[
				169706.984375,
				63.204193115234375,
				-2544210
			],
			"min":[
				169408.3125,
				18.939237594604492,
				-2544629.5
			],
			"type":"VEC3"
		},
		{
			"bufferView":4,
			"componentType":5126,
			"count":3225,
			"type":"VEC3"
		},
		{
			"bufferView":5,
			"componentType":5123,
			"count":3225,
			"type":"SCALAR"
		},
		{
			"bufferView":6,
			"componentType":5126,
			"count":24,
			"max":[
				1,
				1,
				1
			],
			"min":[
				-1,
				-1,
				-1
			],
			"type":"VEC3"
		},
		{
			"bufferView":7,
			"componentType":5126,
			"count":24,
			"type":"VEC3"
		},
		{
			"bufferView":8,
			"componentType":5126,
			"count":24,
			"type":"VEC2"
		},
		{
			"bufferView":9,
			"componentType":5123,
			"count":36,
			"type":"SCALAR"
		}
	],
	"bufferViews":[
		{
			"buffer":0,
			"byteLength":576,
			"byteOffset":0,
			"target":34962
		},
		{
			"buffer":0,
			"byteLength":576,
			"byteOffset":576,
			"target":34962
		},
		{
			"buffer":0,
			"byteLength":96,
			"byteOffset":1152,
			"target":34963
		},
		{
			"buffer":0,
			"byteLength":38700,
			"byteOffset":1248,
			"target":34962
		},
		{
			"buffer":0,
			"byteLength":38700,
			"byteOffset":39948,
			"target":34962
		},
		{
			"buffer":0,
			"byteLength":6450,
			"byteOffset":78648,
			"target":34963
		},
		{
			"buffer":0,
			"byteLength":288,
			"byteOffset":85100,
			"target":34962
		},
		{
			"buffer":0,
			"byteLength":288,
			"byteOffset":85388,
			"target":34962
		},
		{
			"buffer":0,
			"byteLength":192,
			"byteOffset":85676,
			"target":34962
		},
		{
			"buffer":0,
			"byteLength":72,
			"byteOffset":85868,
			"target":34963
		}
	],
	"buffers":[
		{
			"byteLength":85940,
			"uri":"scene.bin"
		}
	]
}
